# xmcd
#
# Track frame offsets:
#	150
#	7673
#	24368
#	36025
#	52552
#	75101
#	89691
#	106825
#	119325
#	137837
#	153436
#
# Disc length: 2259 seconds
#
# Revision: 0
# Processed by: cddbd v1.5.1PL0 Copyright (c) Steve Scherf et al.
# Submitted via: dBpowerAMP V4.0
#
DISCID=6c08d10b
DTITLE=Iris De Ment - Infamous Angel
DYEAR=1993
DGENRE=Country
TTITLE0=Let The Mystery Be
TTITLE1=These Hills
TTITLE2=Hotter Than Mojave In My Heart 
TTITLE3=When Love Was Young
TTITLE4=Our Town
TTITLE5=Fifty Miles Of Elbow Room
TTITLE6=Infamous Angel
TTITLE7=Sweet Forgiveness
TTITLE8=After You're Gone
TTITLE9=Mama's Opry
TTITLE10=Higher Ground
EXTD=sent by Cam
EXTT0=
EXTT1=
EXTT2=
EXTT3=
EXTT4=
EXTT5=
EXTT6=
EXTT7=
EXTT8=
EXTT9=
EXTT10=
PLAYORDER=
